<svg width="42" height="40" viewBox="0 0 42 40" fill="none" xmlns="http://www.w3.org/2000/svg">
<path d="M21.5 10.6801C21.0539 10.6578 20.608 10.7263 20.1892 10.8816C19.7704 11.037 19.3876 11.2758 19.064 11.5836C18.7404 11.8914 18.4827 12.2618 18.3066 12.6722C18.1306 13.0827 18.0398 13.5247 18.0398 13.9713C18.0398 14.4179 18.1306 14.8599 18.3066 15.2704C18.4827 15.6809 18.7404 16.0512 19.064 16.3591C19.3876 16.6669 19.7704 16.9057 20.1892 17.061C20.608 17.2163 21.0539 17.2849 21.5 17.2625C21.9461 17.2849 22.392 17.2163 22.8108 17.061C23.2296 16.9057 23.6124 16.6669 23.936 16.3591C24.2596 16.0512 24.5173 15.6809 24.6934 15.2704C24.8694 14.8599 24.9602 14.4179 24.9602 13.9713C24.9602 13.5247 24.8694 13.0827 24.6934 12.6722C24.5173 12.2618 24.2596 11.8914 23.936 11.5836C23.6124 11.2758 23.2296 11.037 22.8108 10.8816C22.392 10.7263 21.9461 10.6578 21.5 10.6801ZM34.7143 2H8.28571C5.37031 2 3 4.37031 3 7.28571V33.7143C3 36.6297 5.37031 39 8.28571 39H34.7143C37.6297 39 40 36.6297 40 33.7143V7.28571C40 4.37031 37.6297 2 34.7143 2ZM21.5 7.27746C23.2753 7.27746 24.9779 7.9827 26.2333 9.23804C27.4886 10.4934 28.1939 12.196 28.1939 13.9713C28.1939 15.7466 27.4886 17.4492 26.2333 18.7046C24.9779 19.9599 23.2753 20.6652 21.5 20.6652C19.7247 20.6652 18.0221 19.9599 16.7667 18.7046C15.5114 17.4492 14.8061 15.7466 14.8061 13.9713C14.8061 12.196 15.5114 10.4934 16.7667 9.23804C18.0221 7.9827 19.7247 7.27746 21.5 7.27746ZM26.3975 21.1772C27.785 20.0871 28.8339 20.723 29.2138 21.4746C29.858 22.796 29.123 23.4319 27.4382 24.5304C26.0259 25.4306 24.0768 25.7857 22.7967 25.9179L23.8703 26.9833L27.8098 30.9228C29.2469 32.4011 26.9013 34.7054 25.4478 33.2848C24.4567 32.2772 23.0114 30.8319 21.5083 29.3288L17.5687 33.2848C16.1069 34.7054 13.7696 32.3763 15.2232 30.9228L16.2556 29.8904C17.1145 29.0315 18.1221 28.0156 19.1627 26.9833L20.2281 25.9179C18.9563 25.7857 16.9824 25.4471 15.5536 24.5304C13.877 23.4319 13.1337 22.8042 13.7862 21.4746C14.1661 20.723 15.215 20.0871 16.6025 21.1772C16.6025 21.1772 18.4772 22.6638 21.5 22.6638C24.5228 22.6638 26.3975 21.1772 26.3975 21.1772Z" fill="#0F4F96"/>
</svg>
