<svg width="42" height="40" viewBox="0 0 42 40" fill="none" xmlns="http://www.w3.org/2000/svg">
<path d="M22.4024 2C24.4836 2.00555 25.5399 2.01665 26.4519 2.04255L26.8108 2.0555C27.2252 2.0703 27.634 2.0888 28.128 2.111C30.0963 2.20349 31.4394 2.51429 32.6178 2.97123C33.8388 3.44112 34.8674 4.0775 35.8959 5.10422C36.837 6.02871 37.5649 7.14745 38.0289 8.38235C38.4859 9.56077 38.7967 10.9038 38.8892 12.874C38.9114 13.3661 38.9299 13.775 38.9447 14.1912L38.9558 14.5501C38.9835 15.4603 38.9946 16.5166 38.9983 18.5978L39.0002 19.9779V22.4013C39.0047 23.7507 38.9905 25.1 38.9576 26.449L38.9465 26.8079C38.9317 27.2241 38.9132 27.633 38.891 28.1251C38.7985 30.0953 38.484 31.4365 38.0289 32.6168C37.5649 33.8517 36.837 34.9704 35.8959 35.8949C34.9714 36.8359 33.8527 37.5639 32.6178 38.0279C31.4394 38.4848 30.0963 38.7956 28.128 38.8881L26.8108 38.9436L26.4519 38.9547C25.5399 38.9806 24.4836 38.9936 22.4024 38.9973L21.0223 38.9991H18.6007C17.2507 39.0039 15.9007 38.9897 14.5511 38.9566L14.1923 38.9455C13.7531 38.9288 13.314 38.9097 12.8751 38.8881C10.9067 38.7956 9.56367 38.4848 8.3834 38.0279C7.14916 37.5636 6.03107 36.8357 5.10713 35.8949C4.1654 34.9706 3.43682 33.8518 2.97228 32.6168C2.51534 31.4383 2.20455 30.0953 2.11205 28.1251L2.05655 26.8079L2.0473 26.449C2.0132 25.1001 1.99778 23.7507 2.00105 22.4013V18.5978C1.99593 17.2484 2.0095 15.8991 2.04175 14.5501L2.0547 14.1912C2.0695 13.775 2.088 13.3661 2.1102 12.874C2.2027 10.9038 2.51349 9.56262 2.97043 8.38235C3.43605 7.14694 4.16591 6.02816 5.10898 5.10422C6.03239 4.16361 7.14982 3.4357 8.3834 2.97123C9.56367 2.51429 10.9049 2.20349 12.8751 2.111C13.3672 2.0888 13.7779 2.0703 14.1923 2.0555L14.5511 2.0444C15.9001 2.01153 17.2495 1.99735 18.5988 2.00185L22.4024 2ZM20.5006 11.2498C18.0474 11.2498 15.6947 12.2243 13.96 13.959C12.2254 15.6936 11.2508 18.0464 11.2508 20.4996C11.2508 22.9527 12.2254 25.3055 13.96 27.0401C15.6947 28.7748 18.0474 29.7493 20.5006 29.7493C22.9538 29.7493 25.3065 28.7748 27.0412 27.0401C28.7759 25.3055 29.7504 22.9527 29.7504 20.4996C29.7504 18.0464 28.7759 15.6936 27.0412 13.959C25.3065 12.2243 22.9538 11.2498 20.5006 11.2498ZM20.5006 14.9497C21.2294 14.9496 21.9511 15.093 22.6245 15.3718C23.2979 15.6506 23.9098 16.0593 24.4252 16.5746C24.9407 17.0898 25.3496 17.7016 25.6286 18.3749C25.9076 19.0482 26.0513 19.7698 26.0514 20.4986C26.0515 21.2274 25.9081 21.9492 25.6293 22.6225C25.3505 23.2959 24.9418 23.9078 24.4265 24.4232C23.9113 24.9387 23.2995 25.3476 22.6262 25.6266C21.9529 25.9056 21.2313 26.0493 20.5025 26.0494C19.0305 26.0494 17.6189 25.4647 16.5781 24.4239C15.5373 23.3831 14.9526 21.9715 14.9526 20.4996C14.9526 19.0276 15.5373 17.616 16.5781 16.5752C17.6189 15.5344 19.0305 14.9497 20.5025 14.9497M30.2147 8.47484C29.6014 8.47484 29.0132 8.71847 28.5796 9.15214C28.1459 9.58581 27.9023 10.174 27.9023 10.7873C27.9023 11.4006 28.1459 11.9888 28.5796 12.4224C29.0132 12.8561 29.6014 13.0997 30.2147 13.0997C30.828 13.0997 31.4162 12.8561 31.8499 12.4224C32.2835 11.9888 32.5272 11.4006 32.5272 10.7873C32.5272 10.174 32.2835 9.58581 31.8499 9.15214C31.4162 8.71847 30.828 8.47484 30.2147 8.47484Z" fill="#0F4F96"/>
</svg>
