<svg width="42" height="40" viewBox="0 0 42 40" fill="none" xmlns="http://www.w3.org/2000/svg">
<path d="M4.625 3.625C2 6.275 2 10.5125 2 19V20.5C2 28.975 2 33.2125 4.625 35.875C7.275 38.5 11.5125 38.5 20 38.5H21.5C29.975 38.5 34.2125 38.5 36.875 35.875C39.5 33.225 39.5 28.9875 39.5 20.5V19C39.5 10.525 39.5 6.2875 36.875 3.625C34.225 1 29.9875 1 21.5 1H20C11.525 1 7.2875 1 4.625 3.625ZM8.325 12.4125H12.625C12.7625 19.5625 15.9125 22.5875 18.4125 23.2125V12.4125H22.45V18.575C24.9125 18.3125 27.5125 15.5 28.3875 12.4H32.4125C32.0841 14.0046 31.4284 15.5243 30.4864 16.8642C29.5444 18.2041 28.3363 19.3354 26.9375 20.1875C28.4988 20.9643 29.8777 22.0634 30.983 23.4122C32.0884 24.7611 32.8951 26.329 33.35 28.0125H28.9125C27.9625 25.05 25.5875 22.75 22.45 22.4375V28.0125H21.95C13.4 28.0125 8.525 22.1625 8.325 12.4125Z" fill="#0F4F96"/>
</svg>
