<svg width="40" height="40" viewBox="0 0 40 40" fill="none" xmlns="http://www.w3.org/2000/svg">
<path d="M21.4024 1C23.4836 1.00555 24.5399 1.01665 25.4519 1.04255L25.8108 1.0555C26.2252 1.0703 26.634 1.0888 27.128 1.111C29.0963 1.20349 30.4394 1.51429 31.6178 1.97123C32.8388 2.44112 33.8674 3.0775 34.8959 4.10422C35.837 5.02871 36.5649 6.14745 37.0289 7.38235C37.4859 8.56077 37.7967 9.90383 37.8892 11.874C37.9114 12.3661 37.9299 12.775 37.9447 13.1912L37.9558 13.5501C37.9835 14.4603 37.9946 15.5166 37.9983 17.5978L38.0002 18.9779V21.4013C38.0047 22.7507 37.9905 24.1 37.9576 25.449L37.9465 25.8079C37.9317 26.2241 37.9132 26.633 37.891 27.1251C37.7985 29.0953 37.484 30.4365 37.0289 31.6168C36.5649 32.8517 35.837 33.9704 34.8959 34.8949C33.9714 35.8359 32.8527 36.5639 31.6178 37.0279C30.4394 37.4848 29.0963 37.7956 27.128 37.8881L25.8108 37.9436L25.4519 37.9547C24.5399 37.9806 23.4836 37.9936 21.4024 37.9973L20.0223 37.9991H17.6007C16.2507 38.0039 14.9007 37.9897 13.5511 37.9566L13.1923 37.9455C12.7531 37.9288 12.314 37.9097 11.8751 37.8881C9.90674 37.7956 8.56367 37.4848 7.3834 37.0279C6.14916 36.5636 5.03107 35.8357 4.10713 34.8949C3.1654 33.9706 2.43682 32.8518 1.97228 31.6168C1.51534 30.4383 1.20455 29.0953 1.11205 27.1251L1.05655 25.8079L1.0473 25.449C1.0132 24.1001 0.997781 22.7507 1.00105 21.4013V17.5978C0.995932 16.2484 1.0095 14.8991 1.04175 13.5501L1.0547 13.1912C1.0695 12.775 1.088 12.3661 1.1102 11.874C1.2027 9.90383 1.51349 8.56262 1.97043 7.38235C2.43605 6.14694 3.16591 5.02816 4.10898 4.10422C5.03239 3.16361 6.14982 2.4357 7.3834 1.97123C8.56367 1.51429 9.90489 1.20349 11.8751 1.111C12.3672 1.0888 12.7779 1.0703 13.1923 1.0555L13.5511 1.0444C14.9001 1.01153 16.2495 0.997346 17.5988 1.00185L21.4024 1ZM19.5006 10.2498C17.0474 10.2498 14.6947 11.2243 12.96 12.959C11.2254 14.6936 10.2508 17.0464 10.2508 19.4996C10.2508 21.9527 11.2254 24.3055 12.96 26.0401C14.6947 27.7748 17.0474 28.7493 19.5006 28.7493C21.9538 28.7493 24.3065 27.7748 26.0412 26.0401C27.7759 24.3055 28.7504 21.9527 28.7504 19.4996C28.7504 17.0464 27.7759 14.6936 26.0412 12.959C24.3065 11.2243 21.9538 10.2498 19.5006 10.2498ZM19.5006 13.9497C20.2294 13.9496 20.9511 14.093 21.6245 14.3718C22.2979 14.6506 22.9098 15.0593 23.4252 15.5746C23.9407 16.0898 24.3496 16.7016 24.6286 17.3749C24.9076 18.0482 25.0513 18.7698 25.0514 19.4986C25.0515 20.2274 24.9081 20.9492 24.6293 21.6225C24.3505 22.2959 23.9418 22.9078 23.4265 23.4232C22.9113 23.9387 22.2995 24.3476 21.6262 24.6266C20.9529 24.9056 20.2313 25.0493 19.5025 25.0494C18.0305 25.0494 16.6189 24.4647 15.5781 23.4239C14.5373 22.3831 13.9526 20.9715 13.9526 19.4996C13.9526 18.0276 14.5373 16.616 15.5781 15.5752C16.6189 14.5344 18.0305 13.9497 19.5025 13.9497M29.2147 7.47484C28.6014 7.47484 28.0132 7.71847 27.5796 8.15214C27.1459 8.58581 26.9023 9.17399 26.9023 9.78729C26.9023 10.4006 27.1459 10.9888 27.5796 11.4224C28.0132 11.8561 28.6014 12.0997 29.2147 12.0997C29.828 12.0997 30.4162 11.8561 30.8499 11.4224C31.2835 10.9888 31.5272 10.4006 31.5272 9.78729C31.5272 9.17399 31.2835 8.58581 30.8499 8.15214C30.4162 7.71847 29.828 7.47484 29.2147 7.47484Z" fill="white"/>
</svg>
