<svg width="50" height="50" viewBox="0 0 50 50" fill="none" xmlns="http://www.w3.org/2000/svg">
<path d="M15.625 46.875C17.3509 46.875 18.75 45.4759 18.75 43.75C18.75 42.0241 17.3509 40.625 15.625 40.625C13.8991 40.625 12.5 42.0241 12.5 43.75C12.5 45.4759 13.8991 46.875 15.625 46.875Z" fill="#E31E27"/>
<path d="M37.5 46.875C39.2259 46.875 40.625 45.4759 40.625 43.75C40.625 42.0241 39.2259 40.625 37.5 40.625C35.7741 40.625 34.375 42.0241 34.375 43.75C34.375 45.4759 35.7741 46.875 37.5 46.875Z" fill="#E31E27"/>
<path d="M43.75 10.9375H9.09375L7.8125 4.37501C7.73945 4.01677 7.54309 3.69549 7.25759 3.46709C6.97209 3.23869 6.61554 3.11764 6.25 3.12501H0V6.25001H4.96875L10.9375 36.25C11.0105 36.6083 11.2069 36.9295 11.4924 37.1579C11.7779 37.3863 12.1345 37.5074 12.5 37.5H40.625V34.375H13.7812L12.5 28.125H40.625C40.9862 28.1338 41.3393 28.0172 41.6242 27.795C41.909 27.5728 42.1081 27.2587 42.1875 26.9063L45.3125 12.8438C45.3649 12.6119 45.3636 12.3712 45.3089 12.1399C45.2542 11.9086 45.1475 11.6928 44.9968 11.509C44.8461 11.3252 44.6555 11.1782 44.4395 11.0792C44.2234 10.9801 43.9876 10.9317 43.75 10.9375ZM39.375 25H11.9062L9.71875 14.0625H41.7969L39.375 25Z" fill="#E31E27"/>
</svg>
