<svg width="50" height="50" viewBox="0 0 50 50" fill="none" xmlns="http://www.w3.org/2000/svg">
<path d="M31.25 37.5C31.25 39.8012 33.1155 41.6666 35.4167 41.6666C37.7179 41.6666 39.5833 39.8012 39.5833 37.5C39.5833 35.1988 37.7179 33.3333 35.4167 33.3333C33.1155 33.3333 31.25 35.1988 31.25 37.5ZM31.25 37.5H18.75M18.75 37.5C18.75 39.8012 16.8845 41.6666 14.5833 41.6666C12.2822 41.6666 10.4167 39.8012 10.4167 37.5C10.4167 35.1988 12.2822 33.3333 14.5833 33.3333C16.8845 33.3333 18.75 35.1988 18.75 37.5ZM10.4167 37.4416C8.13125 37.3291 6.70834 36.9896 5.69167 35.975C4.67501 34.9604 4.33751 33.5354 4.22501 31.25M39.5833 37.4416C41.8688 37.3291 43.2917 36.9896 44.3083 35.975C45.8333 34.4479 45.8333 31.9937 45.8333 27.0833V22.9166M45.8333 22.9166H36.0417C34.4896 22.9166 33.7146 22.9166 33.0875 22.7125C32.4622 22.5093 31.8938 22.161 31.4289 21.6961C30.964 21.2311 30.6157 20.6628 30.4125 20.0375C30.2083 19.4104 30.2083 18.6354 30.2083 17.0833C30.2083 14.7562 30.2083 13.5937 29.9021 12.6521C29.5973 11.7141 29.0748 10.8616 28.3775 10.1642C27.6801 9.4668 26.8276 8.94436 25.8896 8.63956C24.9479 8.33331 23.7854 8.33331 21.4583 8.33331H4.16667M45.8333 22.9166L43.175 17.9791C41.7375 15.3083 41.0188 13.9729 39.7833 13.2375C38.55 12.5 37.0354 12.5 34.0021 12.5H30.2083M4.16667 16.6666H16.6667M4.16667 22.9166H12.5" stroke="#E31E27" stroke-width="3.125" stroke-linecap="round" stroke-linejoin="round"/>
</svg>
