<svg width="50" height="50" viewBox="0 0 50 50" fill="none" xmlns="http://www.w3.org/2000/svg">
<path d="M5.35715 12.0535C5.35715 10.2775 6.06266 8.57428 7.31849 7.31846C8.57431 6.06263 10.2776 5.35712 12.0536 5.35712H37.9464C39.7224 5.35712 41.4257 6.06263 42.6815 7.31846C43.9374 8.57428 44.6429 10.2775 44.6429 12.0535V37.9464C44.6429 39.7224 43.9374 41.4257 42.6815 42.6815C41.4257 43.9373 39.7224 44.6428 37.9464 44.6428H12.0536C10.2776 44.6428 8.57431 43.9373 7.31849 42.6815C6.06266 41.4257 5.35715 39.7224 5.35715 37.9464V12.0535ZM8.03572 25.8928V37.9464C8.03572 39.012 8.45903 40.034 9.21252 40.7875C9.96602 41.541 10.988 41.9643 12.0536 41.9643H28.5714V25.8928H8.03572ZM28.5714 23.2143V8.03569H12.0536C10.988 8.03569 9.96602 8.459 9.21252 9.21249C8.45903 9.96599 8.03572 10.9879 8.03572 12.0535V23.2143H28.5714ZM37.9464 41.9643C39.012 41.9643 40.034 41.541 40.7875 40.7875C41.541 40.034 41.9643 39.012 41.9643 37.9464V32.1428H31.25V41.9643H37.9464ZM41.9643 29.4643V20.5357H31.25V29.4643H41.9643ZM31.25 8.03569V17.8571H41.9643V12.0535C41.9643 10.9879 41.541 9.96599 40.7875 9.21249C40.034 8.459 39.012 8.03569 37.9464 8.03569H31.25Z" fill="#E31E27" stroke="#E31E27" stroke-width="0.5"/>
</svg>
